<svg xmlns="http://www.w3.org/2000/svg" xmlns:xlink="http://www.w3.org/1999/xlink" contentStyleType="text/css" data-diagram-type="DESCRIPTION" height="247px" preserveAspectRatio="none" style="width:2078px;height:247px;background:#FFFFFF;" version="1.1" viewBox="0 0 2078 247" width="2078px" zoomAndPan="magnify"><defs/><g><!--cluster Appointment Booking System--><g class="cluster" data-entity="Appointment Booking System" data-source-line="4" data-uid="ent0004" id="cluster_Appointment Booking System"><path d="M8.5,144.8 L244.2666,144.8 A3.75,3.75 0 0 1 246.7666,147.3 L253.7666,167.0969 L1498.5,167.0969 A2.5,2.5 0 0 1 1501,169.5969 L1501,238.42 A2.5,2.5 0 0 1 1498.5,240.92 L8.5,240.92 A2.5,2.5 0 0 1 6,238.42 L6,147.3 A2.5,2.5 0 0 1 8.5,144.8" fill="none" style="stroke:#000000;stroke-width:1.5;"/><line style="stroke:#000000;stroke-width:1.5;" x1="6" x2="253.7666" y1="167.0969" y2="167.0969"/><text fill="#000000" font-family="sans-serif" font-size="14" font-weight="bold" lengthAdjust="spacing" textLength="234.7666" x="10" y="159.7951">Appointment Booking System</text></g><!--entity Register--><g class="entity" data-entity="Register" data-source-line="5" data-uid="ent0005" id="entity_Register"><ellipse cx="66.0028" cy="202.3636" fill="#F1F1F1" rx="44.2028" ry="14.5236" style="stroke:#181818;stroke-width:0.5;"/><text fill="#000000" font-family="sans-serif" font-size="14" lengthAdjust="spacing" textLength="58.2695" x="36.868" y="207.0121">Register</text></g><!--entity Login--><g class="entity" data-entity="Login" data-source-line="5" data-uid="ent0006" id="entity_Login"><ellipse cx="238.0004" cy="202.3636" fill="#F1F1F1" rx="29.8804" ry="14.5236" style="stroke:#181818;stroke-width:0.5;"/><text fill="#000000" font-family="sans-serif" font-size="14" lengthAdjust="spacing" textLength="38.0146" x="218.9931" y="207.0121">Login</text></g><!--entity Book Appointment--><g class="entity" data-entity="Book Appointment" data-source-line="8" data-uid="ent0010" id="entity_Book Appointment"><ellipse cx="383.0047" cy="202.3589" fill="#F1F1F1" rx="79.7447" ry="18.3489" style="stroke:#181818;stroke-width:0.5;"/><text fill="#000000" font-family="sans-serif" font-size="14" lengthAdjust="spacing" textLength="130.0742" x="317.9676" y="207.0074">Book Appointment</text></g><!--entity View Appointment Status--><g class="entity" data-entity="View Appointment Status" data-source-line="9" data-uid="ent0012" id="entity_View Appointment Status"><ellipse cx="599.0019" cy="202.3604" fill="#F1F1F1" rx="100.8019" ry="22.5604" style="stroke:#181818;stroke-width:0.5;"/><text fill="#000000" font-family="sans-serif" font-size="14" lengthAdjust="spacing" textLength="177.8232" x="510.0902" y="207.0088">View Appointment Status</text></g><!--entity Login as Admin--><g class="entity" data-entity="Login as Admin" data-source-line="11" data-uid="ent0014" id="entity_Login as Admin"><ellipse cx="1244.9969" cy="202.3614" fill="#F1F1F1" rx="70.5069" ry="16.5014" style="stroke:#181818;stroke-width:0.5;"/><text fill="#000000" font-family="sans-serif" font-size="14" lengthAdjust="spacing" textLength="107.6523" x="1191.1707" y="207.0098">Login as Admin</text></g><!--entity Manage Appointments--><g class="entity" data-entity="Manage Appointments" data-source-line="12" data-uid="ent0016" id="entity_Manage Appointments"><ellipse cx="1047.9975" cy="202.3595" fill="#F1F1F1" rx="91.9475" ry="20.7895" style="stroke:#181818;stroke-width:0.5;"/><text fill="#000000" font-family="sans-serif" font-size="14" lengthAdjust="spacing" textLength="158.1357" x="968.9296" y="207.0079">Manage Appointments</text></g><!--entity Postpone Appointment--><g class="entity" data-entity="Postpone Appointment" data-source-line="13" data-uid="ent0018" id="entity_Postpone Appointment"><ellipse cx="827.9997" cy="202.3619" fill="#F1F1F1" rx="92.7597" ry="20.9519" style="stroke:#181818;stroke-width:0.5;"/><text fill="#000000" font-family="sans-serif" font-size="14" lengthAdjust="spacing" textLength="159.9609" x="748.0192" y="207.0104">Postpone Appointment</text></g><!--entity Manage Users--><g class="entity" data-entity="Manage Users" data-source-line="14" data-uid="ent0020" id="entity_Manage Users"><ellipse cx="1418.0029" cy="202.3626" fill="#F1F1F1" rx="67.2129" ry="15.8426" style="stroke:#181818;stroke-width:0.5;"/><text fill="#000000" font-family="sans-serif" font-size="14" lengthAdjust="spacing" textLength="99.2646" x="1368.3706" y="207.011">Manage Users</text></g><!--entity user--><g class="entity" data-entity="user" data-source-line="1" data-uid="ent0002" id="entity_user"><ellipse cx="285.0028" cy="14" fill="#F1F1F1" rx="8" ry="8" style="stroke:#181818;stroke-width:0.5;"/><path d="M285.0028,22 L285.0028,49 M272.0028,30 L298.0028,30 M285.0028,49 L272.0028,64 M285.0028,49 L298.0028,64" fill="none" style="stroke:#181818;stroke-width:0.5;"/><text fill="#000000" font-family="sans-serif" font-size="14" lengthAdjust="spacing" textLength="90.6855" x="239.66" y="78.4951">Regular User</text></g><!--entity admin--><g class="entity" data-entity="admin" data-source-line="2" data-uid="ent0003" id="entity_admin"><ellipse cx="1146.0021" cy="14" fill="#F1F1F1" rx="8" ry="8" style="stroke:#181818;stroke-width:0.5;"/><path d="M1146.0021,22 L1146.0021,49 M1133.0021,30 L1159.0021,30 M1146.0021,49 L1133.0021,64 M1146.0021,49 L1159.0021,64" fill="none" style="stroke:#181818;stroke-width:0.5;"/><text fill="#000000" font-family="sans-serif" font-size="14" lengthAdjust="spacing" textLength="44.8643" x="1123.57" y="78.4951">Admin</text></g><g class="entity" data-entity="GMN22" data-source-line="17" data-uid="ent0023" id="entity_GMN22"><path d="M1520.64,189.79 L1520.64,214.9228 L1755.3529,214.9228 L1755.3529,199.79 L1745.3529,189.79 L1520.64,189.79" fill="#FEFFDD" style="stroke:#181818;stroke-width:0.5;"/><path d="M1745.3529,189.79 L1745.3529,199.79 L1755.3529,199.79 L1745.3529,189.79" fill="#FEFFDD" style="stroke:#181818;stroke-width:1;"/><text fill="#000000" font-family="sans-serif" font-size="13" lengthAdjust="spacing" textLength="213.7129" x="1526.64" y="206.8569">Includes changing date and time</text></g><g class="entity" data-entity="GMN25" data-source-line="18" data-uid="ent0026" id="entity_GMN25"><path d="M1790.37,189.79 L1790.37,214.9228 L2071.6239,214.9228 L2071.6239,199.79 L2061.6239,189.79 L1790.37,189.79" fill="#FEFFDD" style="stroke:#181818;stroke-width:0.5;"/><path d="M2061.6239,189.79 L2061.6239,199.79 L2071.6239,199.79 L2061.6239,189.79" fill="#FEFFDD" style="stroke:#181818;stroke-width:1;"/><text fill="#000000" font-family="sans-serif" font-size="13" lengthAdjust="spacing" textLength="260.2539" x="1796.37" y="206.8569">Approve, Reject, Complete, or Postpone</text></g><!--link Register to Login--><g class="link" data-entity-1="Register" data-entity-2="Login" data-source-line="5" data-uid="lnk7" id="link_Register_Login"><path d="M110.29,202.36 C140.85,202.36 174.68,202.36 201.67,202.36" fill="none" id="Register-to-Login" style="stroke:#181818;stroke-width:1;stroke-dasharray:7.0,7.0;"/><polygon fill="#181818" points="207.67,202.36,198.67,198.36,202.67,202.36,198.67,206.36,207.67,202.36" style="stroke:#181818;stroke-width:1;"/><text fill="#000000" font-family="sans-serif" font-size="13" lengthAdjust="spacing" textLength="61.1851" x="128.66" y="195.4269">&#171;extend&#187;</text></g><!--link user to Register--><g class="link" data-entity-1="user" data-entity-2="Register" data-source-line="6" data-uid="lnk8" id="link_user_Register"><path d="M239.36,77.31 C191.09,111.85 122.2692,161.088 88.6792,185.128" fill="none" id="user-to-Register" style="stroke:#181818;stroke-width:1;"/><polygon fill="#181818" points="83.8,188.62,93.4467,186.6348,87.866,185.71,88.7908,180.1293,83.8,188.62" style="stroke:#181818;stroke-width:1;"/></g><!--link user to Login--><g class="link" data-entity-1="user" data-entity-2="Login" data-source-line="7" data-uid="lnk9" id="link_user_Login"><path d="M273.74,82.19 C263.53,116.23 250.7639,158.793 243.7839,182.063" fill="none" id="user-to-Login" style="stroke:#181818;stroke-width:1;"/><polygon fill="#181818" points="242.06,187.81,248.4771,180.3387,243.4966,183.0208,240.8144,178.0402,242.06,187.81" style="stroke:#181818;stroke-width:1;"/></g><!--link user to Book Appointment--><g class="link" data-entity-1="user" data-entity-2="Book Appointment" data-source-line="8" data-uid="lnk11" id="link_user_Book Appointment"><path d="M308.47,82.19 C328.63,114.42 353.6093,154.3625 368.8893,178.8025" fill="none" id="user-to-Book Appointment" style="stroke:#181818;stroke-width:1;"/><polygon fill="#181818" points="372.07,183.89,370.6906,174.1382,369.4194,179.6504,363.9072,178.3792,372.07,183.89" style="stroke:#181818;stroke-width:1;"/></g><!--link user to View Appointment Status--><g class="link" data-entity-1="user" data-entity-2="View Appointment Status" data-source-line="9" data-uid="lnk13" id="link_user_View Appointment Status"><path d="M330.66,65.35 C370.4,83.58 429.4,111.15 480,136.8 C507.99,150.99 533.9017,165.0322 557.3117,178.0022" fill="none" id="user-to-View Appointment Status" style="stroke:#181818;stroke-width:1;"/><polygon fill="#181818" points="562.56,180.91,556.626,173.0495,558.1864,178.4869,552.749,180.0472,562.56,180.91" style="stroke:#181818;stroke-width:1;"/></g><!--link admin to Login as Admin--><g class="link" data-entity-1="admin" data-entity-2="Login as Admin" data-source-line="11" data-uid="lnk15" id="link_admin_Login as Admin"><path d="M1168.71,80.6 C1189.61,113.68 1216.4061,156.097 1231.8161,180.497" fill="none" id="admin-to-Login as Admin" style="stroke:#181818;stroke-width:1;"/><polygon fill="#181818" points="1235.02,185.57,1233.5962,175.8246,1232.3501,181.3425,1226.8322,180.0964,1235.02,185.57" style="stroke:#181818;stroke-width:1;"/></g><!--link admin to Manage Appointments--><g class="link" data-entity-1="admin" data-entity-2="Manage Appointments" data-source-line="12" data-uid="lnk17" id="link_admin_Manage Appointments"><path d="M1123.27,81 C1103.71,112.28 1079.3911,151.1627 1063.6211,176.3827" fill="none" id="admin-to-Manage Appointments" style="stroke:#181818;stroke-width:1;"/><polygon fill="#181818" points="1060.44,181.47,1068.6032,175.9598,1063.0909,177.2306,1061.8201,171.7183,1060.44,181.47" style="stroke:#181818;stroke-width:1;"/></g><!--link admin to Postpone Appointment--><g class="link" data-entity-1="admin" data-entity-2="Postpone Appointment" data-source-line="13" data-uid="lnk19" id="link_admin_Postpone Appointment"><path d="M1123.27,53.82 C1084.76,69.57 1004.49,103.3 939,136.8 C911.21,151.01 885.7487,165.876 863.7287,179.246" fill="none" id="admin-to-Postpone Appointment" style="stroke:#181818;stroke-width:1;"/><polygon fill="#181818" points="858.6,182.36,868.369,181.1081,862.8739,179.765,864.217,174.2699,858.6,182.36" style="stroke:#181818;stroke-width:1;"/><text fill="#000000" font-family="sans-serif" font-size="13" lengthAdjust="spacing" textLength="61.1851" x="990" y="124.8669">&#171;extend&#187;</text></g><!--link admin to Manage Users--><g class="link" data-entity-1="admin" data-entity-2="Manage Users" data-source-line="14" data-uid="lnk21" id="link_admin_Manage Users"><path d="M1168.91,54.23 C1204.92,69.67 1276.51,101.88 1333,136.8 C1357.75,152.1 1379.4887,169.0833 1396.1787,182.9033" fill="none" id="admin-to-Manage Users" style="stroke:#181818;stroke-width:1;"/><polygon fill="#181818" points="1400.8,186.73,1396.4191,177.9091,1396.9489,183.5411,1391.3169,184.0709,1400.8,186.73" style="stroke:#181818;stroke-width:1;"/></g><!--link Postpone Appointment to GMN22--><g class="link" data-entity-1="Postpone Appointment" data-entity-2="GMN22" data-source-line="17" data-uid="lnk24" id="link_Postpone Appointment_GMN22"><path d="M847.93,181.58 C871.39,158.76 912.74,123.48 956.5,109.3 C1067.91,73.2 1370.67,77.94 1483.5,109.3 C1540.22,125.06 1596.95,167.86 1623.09,189.49" fill="none" id="Postpone Appointment-GMN22" style="stroke:#181818;stroke-width:1;stroke-dasharray:7.0,7.0;"/></g><!--link Manage Appointments to GMN25--><g class="link" data-entity-1="Manage Appointments" data-entity-2="GMN25" data-source-line="18" data-uid="lnk27" id="link_Manage Appointments_GMN25"><path d="M1067.55,181.59 C1090.59,158.77 1131.24,123.5 1174.5,109.3 C1297.17,69.04 1630.21,78.14 1755.5,109.3 C1818.42,124.95 1883.57,167.8 1913.75,189.46" fill="none" id="Manage Appointments-GMN25" style="stroke:#181818;stroke-width:1;stroke-dasharray:7.0,7.0;"/></g><!--SRC=[TL7BQiCm4BphAmQVOaZw0IOOsfuABPI4zhxOMqMDlJBIkWzA_xsIGy5EsjlkpkoCPaMD-e1YntRiAE0fSYX04MCg39t0wxPtCaqfLyOCr1p9SaA6mJlHdaLnu_tHYSN-Coht1RuCi4gwBhMXn5MDrRstJafKs6xvGrdQkawaR8NDffwn5zFJrcAKlJ0pNwBFZj_dAFPAEiRI9DQKOAQRKqtvoYNuG98JpbJY6UFHHnsyB3WNsIuLyuMJrBSnufKHd3qe_Ci_UXNkfEd6bYEQ0udD1sufxP6qKDVpkSfVxwvo6_mRhx7ZLsvqZLlV3nrhcgGF_dN-0G00]--></g></svg>