<svg xmlns="http://www.w3.org/2000/svg" xmlns:xlink="http://www.w3.org/1999/xlink" contentStyleType="text/css" data-diagram-type="SEQUENCE" height="521px" preserveAspectRatio="none" style="width:1035px;height:521px;background:#FFFFFF;" version="1.1" viewBox="0 0 1035 521" width="1035px" zoomAndPan="magnify"><defs/><g><g><title>Admin</title><rect fill="#000000" fill-opacity="0.00000" height="359.4609" width="8" x="26.4321" y="81.2969"/><line style="stroke:#181818;stroke-width:0.5;stroke-dasharray:5.0,5.0;" x1="30" x2="30" y1="81.2969" y2="440.7578"/></g><g><title>Admin Dashboard</title><rect fill="#000000" fill-opacity="0.00000" height="359.4609" width="8" x="215.8457" y="81.2969"/><line style="stroke:#181818;stroke-width:0.5;stroke-dasharray:5.0,5.0;" x1="219.0884" x2="219.0884" y1="81.2969" y2="440.7578"/></g><g><title>Admin Appointments Page</title><rect fill="#000000" fill-opacity="0.00000" height="359.4609" width="8" x="466.311" y="81.2969"/><line style="stroke:#181818;stroke-width:0.5;stroke-dasharray:5.0,5.0;" x1="470.1304" x2="470.1304" y1="81.2969" y2="440.7578"/></g><g><title>PostgreSQL Database</title><rect fill="#000000" fill-opacity="0.00000" height="359.4609" width="8" x="879.981" y="81.2969"/><line style="stroke:#181818;stroke-width:0.5;stroke-dasharray:5.0,5.0;" x1="883.979" x2="883.979" y1="81.2969" y2="440.7578"/></g><g class="participant participant-head" data-participant="Admin"><text fill="#000000" font-family="sans-serif" font-size="14" lengthAdjust="spacing" textLength="44.8643" x="5" y="77.9951">Admin</text><ellipse cx="30.4321" cy="13.5" fill="#E2E2F0" rx="8" ry="8" style="stroke:#181818;stroke-width:0.5;"/><path d="M30.4321,21.5 L30.4321,48.5 M17.4321,29.5 L43.4321,29.5 M30.4321,48.5 L17.4321,63.5 M30.4321,48.5 L43.4321,63.5" fill="none" style="stroke:#181818;stroke-width:0.5;"/></g><g class="participant participant-tail" data-participant="Admin"><text fill="#000000" font-family="sans-serif" font-size="14" lengthAdjust="spacing" textLength="44.8643" x="5" y="452.7529">Admin</text><ellipse cx="30.4321" cy="464.5547" fill="#E2E2F0" rx="8" ry="8" style="stroke:#181818;stroke-width:0.5;"/><path d="M30.4321,472.5547 L30.4321,499.5547 M17.4321,480.5547 L43.4321,480.5547 M30.4321,499.5547 L17.4321,514.5547 M30.4321,499.5547 L43.4321,514.5547" fill="none" style="stroke:#181818;stroke-width:0.5;"/></g><g class="participant participant-head" data-participant="dashboard"><rect fill="#E2E2F0" height="30.2969" rx="2.5" ry="2.5" style="stroke:#181818;stroke-width:0.5;" width="139.5146" x="150.0884" y="50"/><text fill="#000000" font-family="sans-serif" font-size="14" lengthAdjust="spacing" textLength="125.5146" x="157.0884" y="69.9951">Admin Dashboard</text></g><g class="participant participant-tail" data-participant="dashboard"><rect fill="#E2E2F0" height="30.2969" rx="2.5" ry="2.5" style="stroke:#181818;stroke-width:0.5;" width="139.5146" x="150.0884" y="439.7578"/><text fill="#000000" font-family="sans-serif" font-size="14" lengthAdjust="spacing" textLength="125.5146" x="157.0884" y="459.7529">Admin Dashboard</text></g><g class="participant participant-head" data-participant="appointmentsPage"><rect fill="#E2E2F0" height="30.2969" rx="2.5" ry="2.5" style="stroke:#181818;stroke-width:0.5;" width="200.3613" x="370.1304" y="50"/><text fill="#000000" font-family="sans-serif" font-size="14" lengthAdjust="spacing" textLength="186.3613" x="377.1304" y="69.9951">Admin Appointments Page</text></g><g class="participant participant-tail" data-participant="appointmentsPage"><rect fill="#E2E2F0" height="30.2969" rx="2.5" ry="2.5" style="stroke:#181818;stroke-width:0.5;" width="200.3613" x="370.1304" y="439.7578"/><text fill="#000000" font-family="sans-serif" font-size="14" lengthAdjust="spacing" textLength="186.3613" x="377.1304" y="459.7529">Admin Appointments Page</text></g><g class="participant participant-head" data-participant="db"><rect fill="#E2E2F0" height="30.2969" rx="2.5" ry="2.5" style="stroke:#181818;stroke-width:0.5;" width="166.0039" x="800.979" y="50"/><text fill="#000000" font-family="sans-serif" font-size="14" lengthAdjust="spacing" textLength="152.0039" x="807.979" y="69.9951">PostgreSQL Database</text></g><g class="participant participant-tail" data-participant="db"><rect fill="#E2E2F0" height="30.2969" rx="2.5" ry="2.5" style="stroke:#181818;stroke-width:0.5;" width="166.0039" x="800.979" y="439.7578"/><text fill="#000000" font-family="sans-serif" font-size="14" lengthAdjust="spacing" textLength="152.0039" x="807.979" y="459.7529">PostgreSQL Database</text></g><g class="message" data-participant-1="Admin" data-participant-2="dashboard"><polygon fill="#181818" points="207.8457,108.4297,217.8457,112.4297,207.8457,116.4297,211.8457,112.4297" style="stroke:#181818;stroke-width:1;"/><line style="stroke:#181818;stroke-width:1;" x1="30.4321" x2="213.8457" y1="112.4297" y2="112.4297"/><text fill="#000000" font-family="sans-serif" font-size="13" lengthAdjust="spacing" textLength="165.4136" x="37.4321" y="107.3638">Access Admin Dashboard</text></g><g class="message" data-participant-1="dashboard" data-participant-2="appointmentsPage"><polygon fill="#181818" points="458.311,137.5625,468.311,141.5625,458.311,145.5625,462.311,141.5625" style="stroke:#181818;stroke-width:1;"/><line style="stroke:#181818;stroke-width:1;" x1="219.8457" x2="464.311" y1="141.5625" y2="141.5625"/><text fill="#000000" font-family="sans-serif" font-size="13" lengthAdjust="spacing" textLength="226.4653" x="226.8457" y="136.4966">Navigate to Manage Appointments</text></g><g class="message" data-participant-1="Admin" data-participant-2="appointmentsPage"><polygon fill="#181818" points="458.311,166.6953,468.311,170.6953,458.311,174.6953,462.311,170.6953" style="stroke:#181818;stroke-width:1;"/><line style="stroke:#181818;stroke-width:1;" x1="30.4321" x2="464.311" y1="170.6953" y2="170.6953"/><text fill="#000000" font-family="sans-serif" font-size="13" lengthAdjust="spacing" textLength="235.3394" x="37.4321" y="165.6294">Click "Postpone" on an appointment</text></g><g class="message" data-participant-1="appointmentsPage" data-participant-2="appointmentsPage"><line style="stroke:#181818;stroke-width:1;" x1="470.311" x2="512.311" y1="199.8281" y2="199.8281"/><line style="stroke:#181818;stroke-width:1;" x1="512.311" x2="512.311" y1="199.8281" y2="212.8281"/><line style="stroke:#181818;stroke-width:1;" x1="471.311" x2="512.311" y1="212.8281" y2="212.8281"/><polygon fill="#181818" points="481.311,208.8281,471.311,212.8281,481.311,216.8281,477.311,212.8281" style="stroke:#181818;stroke-width:1;"/><text fill="#000000" font-family="sans-serif" font-size="13" lengthAdjust="spacing" textLength="199.8623" x="477.311" y="194.7622">Show modal for new date/time</text></g><g class="message" data-participant-1="Admin" data-participant-2="appointmentsPage"><polygon fill="#181818" points="458.311,237.9609,468.311,241.9609,458.311,245.9609,462.311,241.9609" style="stroke:#181818;stroke-width:1;"/><line style="stroke:#181818;stroke-width:1;" x1="30.4321" x2="464.311" y1="241.9609" y2="241.9609"/><text fill="#000000" font-family="sans-serif" font-size="13" lengthAdjust="spacing" textLength="161.4336" x="37.4321" y="236.895">Enter new date and time</text></g><g class="message" data-participant-1="appointmentsPage" data-participant-2="db"><polygon fill="#181818" points="871.981,267.0938,881.981,271.0938,871.981,275.0938,875.981,271.0938" style="stroke:#181818;stroke-width:1;"/><line style="stroke:#181818;stroke-width:1;" x1="470.311" x2="877.981" y1="271.0938" y2="271.0938"/><text fill="#000000" font-family="sans-serif" font-size="13" lengthAdjust="spacing" textLength="382.7573" x="477.311" y="266.0278">Update appointment (status="postponed", new date/time)</text></g><g class="message" data-participant-1="db" data-participant-2="appointmentsPage"><polygon fill="#181818" points="481.311,296.2266,471.311,300.2266,481.311,304.2266,477.311,300.2266" style="stroke:#181818;stroke-width:1;"/><line style="stroke:#181818;stroke-width:1;" x1="475.311" x2="882.981" y1="300.2266" y2="300.2266"/><text fill="#000000" font-family="sans-serif" font-size="13" lengthAdjust="spacing" textLength="101.4038" x="487.311" y="295.1606">Confirm update</text></g><g class="message" data-participant-1="appointmentsPage" data-participant-2="db"><polygon fill="#181818" points="871.981,325.3594,881.981,329.3594,871.981,333.3594,875.981,329.3594" style="stroke:#181818;stroke-width:1;"/><line style="stroke:#181818;stroke-width:1;" x1="470.311" x2="877.981" y1="329.3594" y2="329.3594"/><text fill="#000000" font-family="sans-serif" font-size="13" lengthAdjust="spacing" textLength="389.6699" x="477.311" y="324.2935">Insert into appointment_history (old/new status, date, time)</text></g><g class="message" data-participant-1="db" data-participant-2="appointmentsPage"><polygon fill="#181818" points="481.311,354.4922,471.311,358.4922,481.311,362.4922,477.311,358.4922" style="stroke:#181818;stroke-width:1;"/><line style="stroke:#181818;stroke-width:1;" x1="475.311" x2="882.981" y1="358.4922" y2="358.4922"/><text fill="#000000" font-family="sans-serif" font-size="13" lengthAdjust="spacing" textLength="138.8169" x="487.311" y="353.4263">Confirm history entry</text></g><g class="message" data-participant-1="appointmentsPage" data-participant-2="Admin"><polygon fill="#181818" points="41.4321,383.625,31.4321,387.625,41.4321,391.625,37.4321,387.625" style="stroke:#181818;stroke-width:1;"/><line style="stroke:#181818;stroke-width:1;" x1="35.4321" x2="469.311" y1="387.625" y2="387.625"/><text fill="#000000" font-family="sans-serif" font-size="13" lengthAdjust="spacing" textLength="193.6099" x="47.4321" y="382.5591">Display updated appointment</text></g><g class="message" data-participant-1="appointmentsPage" data-participant-2="Admin"><polygon fill="#181818" points="41.4321,415.7578,31.4321,419.7578,41.4321,423.7578,37.4321,419.7578" style="stroke:#181818;stroke-width:1;"/><line style="stroke:#181818;stroke-width:1;" x1="35.4321" x2="469.311" y1="419.7578" y2="419.7578"/><text fill="#000000" font-family="sans-serif" font-size="13" lengthAdjust="spacing" textLength="79.9932" x="47.4321" y="414.6919">Close modal</text></g><path d="M475,400.625 L475,425.625 L1028,425.625 L1028,410.625 L1018,400.625 L475,400.625" fill="#FEFFDD" style="stroke:#181818;stroke-width:0.5;"/><path d="M1018,400.625 L1018,410.625 L1028,410.625 L1018,400.625" fill="#FEFFDD" style="stroke:#181818;stroke-width:0.5;"/><text fill="#000000" font-family="sans-serif" font-size="13" lengthAdjust="spacing" textLength="532.9365" x="481" y="417.6919">The appointment status is updated to "&#1605;&#1572;&#1580;&#1604;" and history is logged in PostgreSQL.</text><!--SRC=[ZLBDJi904BxlKqnwmWJbtaGJ0XvCr63GivbsbtPZkxFP7IJSzKqy-a3mDYujK0f5FUxCzpSpYocJWw4ijH4M7UjKMpGCKLM2CVey8NGo0lGWTwykwD1QqePBPTZ313DLKV2WkYcscHFod3arVReFJem9-feb4o5grSkRnZM6OPegx-4eczWZDl1ZnnWUyLrdo0gOu05DgBN2Dawdr56XqxSwfoKJmf41D8T0SKpg5fhcj82I91Om2mitQX7cOZLWNQhV0jmQLWqyU4keA5skCedXnTQufWqzpyXpVntPxHGowhS3N0YPd9cVp4ox4kQLx5dNE-ELOmWjEXHvpRKFtsi9FIhaO6DPH-bNrdtud_TE97JSiZD2jRyOnjhR0fVRiFBFAsrfeuAygcyZXA6mFQUpd6DupjkBhCE3zdk7C6wq_bnzhRxN7r5rd5tO02eeom8cNBRvvbS_]--></g></svg>